<svg width="300" height="300" viewBox="0 0 300 300" fill="none" xmlns="http://www.w3.org/2000/svg">
    <!-- <rect width="300" height="300" fill="white"/> -->
    <path d="M204.239 259.261C173.317 272.262 137.104 268.199 109.437 250.73C96.0099 242.198 83.8036 230.009 76.8867 215.79C66.7147 193.444 69.5629 165.411 83.8036 145.503C97.6374 126.002 122.864 114.626 147.276 116.251C171.282 117.877 195.288 132.096 207.494 152.41C213.597 162.567 216.852 173.943 216.446 185.725C216.039 197.507 210.749 208.477 201.798 215.79C194.474 221.884 183.082 224.321 173.317 222.29C163.145 220.259 155.007 214.164 150.125 205.633C144.428 195.882 142.801 181.662 133.443 174.755C122.457 167.442 106.589 175.162 101.299 187.756C96.8236 199.132 100.486 213.352 106.996 224.321C119.609 242.604 141.173 255.199 163.145 255.605C185.93 256.011 208.715 245.042 222.549 227.165C235.162 210.102 239.638 185.725 233.534 163.38C227.024 140.222 210.342 122.752 190.405 108.938C174.944 98.3752 158.669 89.4371 149.718 73.186C143.208 62.6227 141.987 48.403 146.87 36.6209C150.938 24.4326 160.703 13.8694 172.503 9.80659C196.102 1.68101 221.735 12.2442 239.638 28.0891C272.188 54.0909 292.532 91.8748 294.973 139.409C297.414 279.982 134.256 340.111 49.6259 247.886C19.1101 214.977 0.800603 168.661 7.31064 124.783C12.6 89.4371 32.1302 56.9348 60.6116 37.4335C72.411 30.1205 86.2448 23.62 100.079 23.62C114.319 23.62 128.967 30.5268 136.291 43.1214C139.139 48.8093 140.36 56.9348 139.953 64.2479C139.953 72.7797 137.105 81.3115 133.036 88.2183C122.05 104.469 102.927 110.157 87.0586 117.47C44.7434 138.19 36.1989 172.318 49.6259 214.977C72.0041 280.794 168.841 305.577 239.231 247.886C272.188 217.415 286.022 169.068 277.884 126.002C272.595 101.219 261.609 76.4362 241.265 60.9976C230.686 52.0595 216.852 45.1528 203.425 46.7779C195.695 47.9967 187.557 52.4658 186.744 60.1851C185.93 68.7169 192.44 74.4048 198.95 78.8739C216.446 91.8748 236.383 102.438 248.182 120.314C256.726 132.503 260.388 146.722 260.795 161.348C262.423 201.976 240.044 242.604 204.239 259.261Z" fill="black" />
    <style>
        @media (prefers-color-scheme: dark) {
            path {
                fill: white;
            }
        }
    </style>
</svg>