<svg width="148" height="168" viewBox="0 0 148 168" fill="none" xmlns="http://www.w3.org/2000/svg">
<path d="M101.4 97C98.6 97 95.6 95.9333 92.4 93.8C89.3333 91.5333 85.7333 89.0667 81.6 86.4C77.6 83.6 72.8667 81.1333 67.4 79C61.9333 76.7333 55.4 75.6 47.8 75.6C38.2 75.6 30.4 76.6 24.4 78.6C18.4 80.4667 15.4 83.8667 15.4 88.8C15.4 91.3333 16.1333 93.4667 17.6 95.2C19.2 96.9333 21.1333 98.4667 23.4 99.8C25.8 101 28.2667 102.067 30.8 103C33.4667 103.933 35.8667 104.933 38 106C40.2667 107.067 42.0667 108.267 43.4 109.6C44.7333 110.8 45.2667 112.4 45 114.4C44.7333 116.667 43.8667 118.2 42.4 119C41.0667 119.8 39.3333 120.2 37.2 120.2C34.8 120.2 32.0667 119.933 29 119.4C25.9333 118.867 22.8 118.6 19.6 118.6C14.4 118.6 9.93333 119.867 6.2 122.4C2.46667 124.933 0.6 128.733 0.6 133.8C0.6 138.333 2.13333 142.667 5.2 146.8C8.4 150.933 12.5333 154.533 17.6 157.6C22.6667 160.667 28.3333 163.067 34.6 164.8C40.8667 166.667 47.2 167.6 53.6 167.6C60.9333 167.6 68.2667 166.867 75.6 165.4C82.9333 163.933 89.5333 161.8 95.4 159C101.4 156.333 106.2 153.133 109.8 149.4C113.533 145.667 115.4 141.6 115.4 137.2C115.4 133.867 114.333 131.067 112.2 128.8C110.067 126.4 107.267 125.067 103.8 124.8H102.8C99.4667 124.8 96.6667 125.8 94.4 127.8C92.2667 129.8 90.3333 132.267 88.6 135.2C87 138.133 85.4667 141.4 84 145C82.5333 148.467 80.7333 151.667 78.6 154.6C76.6 157.533 74.1333 160 71.2 162C68.2667 164 64.5333 165 60 165C55.4667 165 51.8 164.133 49 162.4C46.3333 160.8 45 158.8 45 156.4C45 154.933 45.4 153.667 46.2 152.6C47.1333 151.4 48.1333 150.2 49.2 149C50.4 147.8 51.4 146.6 52.2 145.4C53.1333 144.067 53.6 142.6 53.6 141C53.6 138.6 52.7333 136.667 51 135.2C49.2667 133.6 47.0667 132.8 44.4 132.8C42.5333 132.8 40.8 133.067 39.2 133.6C37.7333 134.133 36.2667 134.8 34.8 135.6C33.3333 136.267 31.8 136.867 30.2 137.4C28.7333 137.933 27.0667 138.2 25.2 138.2C23.0667 138.2 21.4 137.6 20.2 136.4C19.1333 135.2 18.6 133.733 18.6 132C18.6 130 19.2667 128.533 20.6 127.6C21.9333 126.667 23.6 126 25.6 125.6C27.6 125.067 29.8 124.667 32.2 124.4C34.6 124.133 36.8667 123.667 39 123C41.1333 122.333 42.9333 121.4 44.4 120.2C46 118.867 47 116.933 47.4 114.4C47.8 111.867 47.2667 109.733 45.8 108C44.4667 106.267 42.8667 104.533 41 102.8C39.2667 101.067 37.6 99.2667 36 97.4C34.4 95.5333 33.6 93.2 33.6 90.4C33.6 88 34.2 86 35.4 84.4C36.6 82.8 38.1333 81.5333 40 80.6C41.8667 79.6667 43.8667 79.0667 46 78.8C48.2667 78.4 50.4 78.2 52.4 78.2C58 78.4667 62.8 79.6 66.8 81.6C70.8 83.4667 74.3333 85.8667 77.4 88.8C80.6 91.6 83.4667 94.6 86 97.8C88.5333 101 91.0667 104 93.6 106.8C96.2667 109.6 99.0667 111.933 102 113.8C105.067 115.533 108.667 116.4 112.8 116.4C115.6 116.4 118.133 115.867 120.4 114.8C122.667 113.733 124.533 112.4 126 110.8C127.6 109.2 128.8 107.467 129.6 105.6C130.4 103.733 130.8 102.067 130.8 100.6C130.8 97.6667 129.867 95.2 128 93.2C126.267 91.0667 123.667 90 120.2 90C118.067 90 116.267 90.4 114.8 91.2C113.333 91.8667 111.933 92.6667 110.6 93.6C109.4 94.4 108.067 95.2 106.6 96C105.133 96.6667 103.4 97 101.4 97ZM94 57C90.6667 57.1333 87.4 57.7333 84.2 58.8C81.1333 59.8667 78 61 74.8 62.2C71.7333 63.2667 68.6 64.2667 65.4 65.2C62.3333 66.1333 59.2 66.6 56 66.6C52.6667 66.6 50 66.0667 48 65C46 63.8 45 61.8667 45 59.2C45 57.3333 45.8 55.6667 47.4 54.2C49.1333 52.7333 51 51.2667 53 49.8C55 48.3333 56.8 46.7333 58.4 45C60.1333 43.1333 61 40.9333 61 38.4C61 36.6667 60.4667 35.4667 59.4 34.8C58.3333 34 57 33.5333 55.4 33.4C53.8 33.1333 52.0667 33 50.2 33C48.3333 33 46.6 32.8667 45 32.6C43.4 32.3333 42.0667 31.7333 41 30.8C39.9333 29.8667 39.4 28.4 39.4 26.4C39.4 23.3333 41.1333 20.9333 44.6 19.2C48.2 17.4667 52.2667 16.6 56.8 16.6C61.0667 16.6 64.3333 17.8667 66.6 20.4C69 22.9333 71.0667 25.8 72.8 29C74.5333 32.0667 76.2 34.8667 77.8 37.4C79.5333 39.9333 81.8667 41.2 84.8 41.2C85.8667 41.2 86.6667 41.1333 87.2 41C89.4667 40.4667 91.0667 39.1333 92 37C93.0667 34.8667 93.7333 32.4 94 29.6C94.4 26.6667 94.6667 23.6 94.8 20.4C94.9333 17.2 95.2667 14.2667 95.8 11.6C96.3333 8.93333 97.2 6.73333 98.4 4.99999C99.6 3.13333 101.467 2.19999 104 2.19999C106.667 2.19999 108.467 3.19999 109.4 5.19999C110.467 7.06666 111.067 9.39999 111.2 12.2C111.467 15 111.6 18.1333 111.6 21.6C111.733 24.9333 112.2 28 113 30.8C113.8 33.6 115.267 36 117.4 38C119.533 39.8667 122.733 40.8 127 40.8C129.4 40.8 131.8 40.4 134.2 39.6C136.733 38.6667 139 37.4667 141 36C143 34.5333 144.6 32.8 145.8 30.8C147.133 28.8 147.8 26.7333 147.8 24.6C147.8 21.9333 147.067 19.4667 145.6 17.2C144.133 14.9333 141.667 13.8 138.2 13.8C136.2 13.8 134.467 14.1333 133 14.8C131.667 15.4667 130.4 16.2667 129.2 17.2C128.133 18 127.133 18.7333 126.2 19.4C125.267 20.0667 124.267 20.4 123.2 20.4C120.4 20.4 118.6 19.4 117.8 17.4C117 15.2667 116.2 13 115.4 10.6C114.733 8.06666 113.6 5.79999 112 3.8C110.4 1.66666 107.467 0.599989 103.2 0.599989C99.3333 0.599989 96.3333 1.86666 94.2 4.39999C92.2 6.93333 90.5333 9.8 89.2 13C88 16.0667 86.8667 18.8667 85.8 21.4C84.8667 23.9333 83.4 25.2 81.4 25.2C79.4 25.2 77.6 24.6667 76 23.6C74.5333 22.5333 72.8667 21.3333 71 20C69.2667 18.6667 67.2667 17.4667 65 16.4C62.8667 15.3333 60.0667 14.8 56.6 14.8C51.6667 14.8 47.1333 15.6667 43 17.4C39 19.1333 35.5333 21.5333 32.6 24.6C29.6667 27.5333 27.3333 31 25.6 35C24 39 23.2 43.3333 23.2 48C23.2 54.8 25.4667 60.4667 30 65C34.5333 69.4 40.6 71.6 48.2 71.6C51.1333 71.6 54.2667 71.2 57.6 70.4C60.9333 69.4667 64.1333 68.4667 67.2 67.4C70.4 66.3333 73.2667 65.4 75.8 64.6C78.3333 63.6667 80.2 63.2 81.4 63.2C83 63.2 84 63.6 84.4 64.4C84.9333 65.0667 85.2 65.9333 85.2 67C85.2 68.0667 85.0667 69.3333 84.8 70.8C84.6667 72.1333 84.6667 73.4667 84.8 74.8C85.0667 78.4 86.2 81.2 88.2 83.2C90.2 85.2 93.1333 86.2 97 86.2C100.333 86.2 103.4 84.8667 106.2 82.2C109 79.5333 110.4 75.8667 110.4 71.2C110.4 66.4 108.733 62.8667 105.4 60.6C102.2 58.2 98.4 57 94 57Z" fill="white"/>
</svg>
