<svg width="189" height="156" viewBox="0 0 189 156" fill="none" xmlns="http://www.w3.org/2000/svg">
<path d="M149.4 65.2C149.4 56.5333 151.333 50.3333 155.2 46.6C159.2 42.7333 165.533 40.7333 174.2 40.6H184.8V39.4H174.2C165.667 39.4 159.4 37.4667 155.4 33.6C151.4 29.7333 149.4 23.4667 149.4 14.8V0.199997H148V14.8C148 19.6 147.467 23.4667 146.4 26.4C145.333 29.3333 143.933 31.6667 142.2 33.4C138.067 27.2667 133.133 21.7333 127.4 16.8C122.467 12.6667 116.4 8.93333 109.2 5.59999C102 2.13333 93.6667 0.399995 84.2 0.399995C74.2 0.399995 64.4 2.06666 54.8 5.39999C45.2 8.73333 36.6 13.6667 29 20.2C21.4 26.6 15.2667 34.6 10.6 44.2C5.93333 53.8 3.6 64.8667 3.6 77.4C3.6 89.9333 5.8 101.067 10.2 110.8C14.7333 120.4 20.7333 128.467 28.2 135C35.8 141.4 44.5333 146.267 54.4 149.6C64.4 152.933 74.8 154.6 85.6 154.6C92 154.6 97.8667 154.133 103.2 153.2C108.533 152.4 113.333 151.333 117.6 150C121.867 148.533 125.733 146.933 129.2 145.2C132.667 143.333 135.667 141.467 138.2 139.6C144.2 135.333 148.933 130.4 152.4 124.8V102.6C152.4 100.333 152.467 98.4667 152.6 97C152.733 95.4 153.133 94.1333 153.8 93.2C154.467 92.1333 155.467 91.4 156.8 91C158.267 90.4667 160.267 90.2 162.8 90.2H172.2C172.467 90.2 172.6 90.0667 172.6 89.8V89.4C172.6 89.1333 172.467 89 172.2 89H102.2C101.933 89 101.8 89.1333 101.8 89.4V89.8C101.8 90.0667 101.933 90.2 102.2 90.2H119.8C123 90.2 125.467 90.4667 127.2 91C129.067 91.5333 130.4 92.4667 131.2 93.8C132.133 95 132.667 96.6667 132.8 98.8C132.933 100.8 133 103.267 133 106.2V117C133 122.467 132.2 127.4 130.6 131.8C129 136.067 126.4 139.733 122.8 142.8C119.2 145.733 114.4 148 108.4 149.6C102.4 151.067 95 151.8 86.2 151.8C74.2 151.8 64.3333 149.267 56.6 144.2C48.8667 139.133 42.8 132.867 38.4 125.4C34 117.8 30.9333 109.733 29.2 101.2C27.6 92.5333 26.8 84.6 26.8 77.4C26.8 73 27.2 68.1333 28 62.8C28.8 57.4667 30.0667 52.0667 31.8 46.6C33.6667 41.1333 36.0667 35.8667 39 30.8C42.0667 25.6 45.8667 21 50.4 17C55.0667 13 60.5333 9.79999 66.8 7.39999C73.0667 5 80.3333 3.8 88.6 3.8C96.7333 3.8 103.933 5.33333 110.2 8.4C116.6 11.3333 122 14.6667 126.4 18.4C130.8 22.1333 134.2 25.6667 136.6 29C139 32.2 140.4 34.0667 140.8 34.6C139.067 36.0667 136.733 37.2667 133.8 38.2C131 39 127.467 39.4 123.2 39.4H112.6V40.6H123.2C132 40.6 138.333 42.6 142.2 46.6C146.067 50.4667 148 56.6667 148 65.2V79.8H149.4V65.2Z" fill="white"/>
</svg>
