<svg width="162" height="146" viewBox="0 0 162 146" fill="none" xmlns="http://www.w3.org/2000/svg">
<path d="M161.8 1.59999C161.8 1.06666 161.467 0.799998 160.8 0.799998H102.4C101.733 0.799998 101.4 1.06666 101.4 1.59999V2.19999C101.4 2.73333 101.733 2.99999 102.4 2.99999H114.6C117.267 2.99999 119.333 3.39999 120.8 4.19999C122.4 5 123.533 6 124.2 7.2C125 8.26666 125.467 9.46666 125.6 10.8C125.867 12.1333 126 13.3333 126 14.4V68.2H104C96.4 68.2 90.8667 66.4667 87.4 63C83.9333 59.5333 82.2 54 82.2 46.4V35.2H80V46.4C80 54.2667 78.2667 59.8667 74.8 63.2C71.4667 66.5333 65.9333 68.2 58.2 68.2H36V14.4C36 13.3333 36.0667 12.1333 36.2 10.8C36.4667 9.46666 36.9333 8.26666 37.6 7.2C38.4 6 39.5333 5 41 4.19999C42.6 3.39999 44.7333 2.99999 47.4 2.99999H59.8C60.3333 2.99999 60.6 2.73333 60.6 2.19999V1.59999C60.6 1.06666 60.3333 0.799998 59.8 0.799998H1.2C0.666667 0.799998 0.4 1.06666 0.4 1.59999V2.19999C0.4 2.73333 0.666667 2.99999 1.2 2.99999H13.6C16.2667 2.99999 18.3333 3.39999 19.8 4.19999C21.4 5 22.5333 6 23.2 7.2C24 8.26666 24.4667 9.46666 24.6 10.8C24.8667 12.1333 25 13.3333 25 14.4V132.6C25 133.533 24.8667 134.667 24.6 136C24.4667 137.2 24 138.4 23.2 139.6C22.5333 140.8 21.4 141.8 19.8 142.6C18.3333 143.4 16.2667 143.8 13.6 143.8H1.2C0.666667 143.8 0.4 144.067 0.4 144.6V145.2C0.4 145.733 0.666667 146 1.2 146H59.8C60.3333 146 60.6 145.733 60.6 145.2V144.6C60.6 144.067 60.3333 143.8 59.8 143.8H47.4C44.7333 143.8 42.6 143.4 41 142.6C39.5333 141.8 38.4 140.8 37.6 139.6C36.9333 138.4 36.4667 137.2 36.2 136C36.0667 134.667 36 133.533 36 132.6V70.4H58.2C65.8 70.4 71.3333 72.0667 74.8 75.4C78.2667 78.7333 80 84.2 80 91.8V103.4H82.2V91.8C82.2 84.2 83.9333 78.7333 87.4 75.4C90.8667 72.0667 96.4 70.4 104 70.4H126V132.6C126 133.533 125.867 134.667 125.6 136C125.467 137.2 125 138.4 124.2 139.6C123.533 140.8 122.4 141.8 120.8 142.6C119.333 143.4 117.267 143.8 114.6 143.8H102.4C101.733 143.8 101.4 144.067 101.4 144.6V145.2C101.4 145.733 101.733 146 102.4 146H160.8C161.467 146 161.8 145.733 161.8 145.2V144.6C161.8 144.067 161.467 143.8 160.8 143.8H148.6C145.933 143.8 143.8 143.4 142.2 142.6C140.733 141.8 139.6 140.8 138.8 139.6C138.133 138.4 137.667 137.2 137.4 136C137.267 134.667 137.2 133.533 137.2 132.6V14.4C137.2 13.3333 137.267 12.1333 137.4 10.8C137.667 9.46666 138.133 8.26666 138.8 7.2C139.6 6 140.733 5 142.2 4.19999C143.8 3.39999 145.933 2.99999 148.6 2.99999H160.8C161.467 2.99999 161.8 2.73333 161.8 2.19999V1.59999Z" fill="white"/>
</svg>
