<svg width="158" height="152" viewBox="0 0 158 152" fill="none" xmlns="http://www.w3.org/2000/svg">
<path d="M25.8 142.4L51.2 110.8L5 149H62.4C65.4667 149 68 148.533 70 147.6C72 146.533 73.6667 145.4 75 144.2C76.4667 142.867 77.6 141.333 78.4 139.6C79.2 141.333 80.3333 142.867 81.8 144.2C82.8667 145.4 84.3333 146.533 86.2 147.6C88.2 148.533 90.6 149 93.4 149H152L105.8 110.8L131.2 142.4H96C92.5333 142.4 89.5333 141.133 87 138.6C84.4667 136.067 83.2 133.067 83.2 129.6V23.4C83.2 19.8 84.4667 16.7333 87 14.2C89.5333 11.6667 92.5333 10.4 96 10.4H131.2L105.8 42.2L152 3.8H94.6C91.5333 3.8 89 4.33333 87 5.39999C85 6.33333 83.3333 7.33333 82 8.4C80.5333 9.86666 79.3333 11.4667 78.4 13.2C77.6 11.4667 76.5333 9.86666 75.2 8.4C74.1333 7.33333 72.6 6.33333 70.6 5.39999C68.7333 4.33333 66.4 3.8 63.6 3.8H5L51.2 42.2L25.8 10.4H61C64.4667 10.4 67.4667 11.6667 70 14.2C72.5333 16.7333 73.8 19.8 73.8 23.4V129.6C73.8 133.067 72.5333 136.067 70 138.6C67.4667 141.133 64.4667 142.4 61 142.4H25.8Z" fill="white"/>
</svg>
