<svg width="181" height="146" viewBox="0 0 181 146" fill="none" xmlns="http://www.w3.org/2000/svg">
    <path d="M144.6 13.8C144.6 9.79999 145.533 7.06666 147.4 5.6C149.4 4.13332 152.333 3.39999 156.2 3.39999H160C160.533 3.39999 160.8 2.99999 160.8 2.19999V1.59999C160.8 1.06666 160.533 0.799998 160 0.799998H122.8C122 0.799998 121.6 1.06666 121.6 1.59999V2.19999C121.6 2.99999 122 3.39999 122.8 3.39999H126.4C130.667 3.39999 133.667 4.13332 135.4 5.6C137.133 7.06666 138 9.79999 138 13.8V122.4L54.4 0.799998H1.4C0.6 0.799998 0.2 1.2 0.2 1.99999C0.2 2.13333 0.266667 2.26666 0.4 2.39999C0.533334 2.53333 0.6 2.66666 0.6 2.8L29.4 54.2C29.5333 54.7333 29.8667 54.8667 30.4 54.6C30.8 54.2 30.9333 53.8 30.8 53.4C30 51.6667 28.5333 48.8667 26.4 45C24.2667 41.1333 22.1333 37 20 32.6C17.8667 28.2 16.0667 23.8667 14.6 19.6C13.1333 15.2 12.6 11.7333 13 9.2C13.4 6.93333 14.3333 5.39999 15.8 4.6C17.4 3.79999 19.1333 3.39999 21 3.39999H27C30.4667 3.39999 32.8667 4.19999 34.2 5.79999C35.6667 7.26666 36.4 9.93332 36.4 13.8V131C36.4 135.667 35.4667 138.933 33.6 140.8C31.7333 142.667 28.8667 143.6 25 143.6H21.2C20.4 143.6 20 143.933 20 144.6V145.2C20 145.733 20.4 146 21.2 146H58.6C59 146 59.2 145.733 59.2 145.2V144.6C59.2 143.933 59 143.6 58.6 143.6H54.8C50.5333 143.6 47.5333 142.733 45.8 141C44.0667 139.267 43.2 135.933 43.2 131V11.2L134.2 146H179.8C180.6 146 181 145.733 181 145.2C181 144.933 180.933 144.733 180.8 144.6C180.667 144.333 180.6 144.133 180.6 144L151.6 92.6C151.467 92.6 151.4 92.6 151.4 92.6C151.267 92.3333 151.067 92.3333 150.8 92.6C150.533 92.7333 150.4 93 150.4 93.4C151.333 95.1333 152.867 98.0667 155 102.2C157.133 106.2 159.267 110.533 161.4 115.2C163.533 119.733 165.267 124.133 166.6 128.4C168.067 132.667 168.6 135.8 168.2 137.8C167.4 141.667 164.733 143.6 160.2 143.6H156.2C152.333 143.6 149.4 142.933 147.4 141.6C145.533 140.133 144.6 137.267 144.6 133V13.8Z" fill="white"/>
</svg>
