<svg width="185" height="150" viewBox="0 0 185 150" fill="none" xmlns="http://www.w3.org/2000/svg">
    <path d="M158.4 27C156.267 22.2 153.4 17.8 149.8 13.8C146.733 10.4667 142.667 7.39999 137.6 4.6C132.667 1.79999 126.467 0.26666 119 -2.86102e-06C116.6 -2.86102e-06 113.933 0.133329 111 0.399992C108.2 0.666663 105.4 1.13333 102.6 1.8C99.8 2.33332 97.0667 3.19999 94.4 4.39999C91.8667 5.46666 89.6667 6.93332 87.8 8.79999C87.1333 8.53333 86.4 8.33333 85.6 8.2C84.2667 7.8 82.4667 7.59999 80.2 7.59999C79.8 7.59999 79.4 7.66666 79 7.79999C78.6 7.79999 78.2 7.79999 77.8 7.79999C73.8 8.33333 70.1333 9.33333 66.8 10.8C63.6 12.2667 60.6 14.0667 57.8 16.2C55.1333 18.3333 52.6667 20.6667 50.4 23.2C48.2667 25.6 46.4 28.0667 44.8 30.6C40.9333 36.6 37.8667 43.2 35.6 50.4C29.0667 52.2667 23.2 54.9333 18 58.4C15.8667 59.8667 13.7333 61.6 11.6 63.6C9.46667 65.4667 7.53333 67.6667 5.8 70.2C4.2 72.7333 2.86667 75.6 1.8 78.8C0.866667 81.8667 0.400001 85.3333 0.400001 89.2C0.400001 92.9333 0.933334 96.2667 2 99.2C3.2 102 4.66667 104.533 6.4 106.8C8.26667 108.933 10.4 110.733 12.8 112.2C15.2 113.667 17.6 114.933 20 116C25.7333 118.4 32.2667 119.8 39.6 120.2C42.1333 125.667 45.7333 130.533 50.4 134.8C54.2667 138.4 59.4667 141.733 66 144.8C72.6667 147.867 81 149.4 91 149.4C99.1333 149.4 106.4 148.4 112.8 146.4C119.2 144.267 124.867 141.533 129.8 138.2C134.733 134.733 138.933 130.867 142.4 126.6C146 122.2 149.067 117.733 151.6 113.2C157.467 102.533 161.4 90.4667 163.4 77C167.4 74.4667 171 71.6 174.2 68.4C176.867 65.7333 179.333 62.6 181.6 59C183.867 55.4 185 51.4667 185 47.2C185 44.4 184.467 41.7333 183.4 39.2C182.333 36.6667 180.867 34.4667 179 32.6C177.133 30.7333 174.867 29.2667 172.2 28.2C169.667 27 166.8 26.4 163.6 26.4C162 26.4 160.267 26.6 158.4 27ZM104.2 10.8C109.8 10.8 114.867 11.8667 119.4 14C124.067 16.1333 128.067 18.4667 131.4 21C135.267 24.0667 138.733 27.5333 141.8 31.4C141.133 31.9333 140.333 32.5333 139.4 33.2C138.733 33.8667 137.867 34.7333 136.8 35.8C135.867 36.7333 134.867 37.9333 133.8 39.4C131.267 42.6 129.267 46.6 127.8 51.4C126.467 56.0667 125.267 61 124.2 66.2C123.267 71.4 122.4 76.6 121.6 81.8C120.8 86.8667 119.733 91.4 118.4 95.4C111.867 98.8667 105.133 101.867 98.2 104.4C91.2667 106.933 84.8 109.067 78.8 110.8C72 112.8 65.3333 114.533 58.8 116C56 113.333 53.6 110.4 51.6 107.2C49.7333 104 48.2 100.667 47 97.2C45.8 93.7333 44.8667 90.2667 44.2 86.8C43.5333 83.2 43.0667 79.8 42.8 76.6C42.1333 68.8667 42.3333 61 43.4 53C44.7333 52.7333 46.2667 52.4 48 52C49.4667 51.7333 51.1333 51.4667 53 51.2C54.8667 50.8 56.9333 50.4 59.2 50C63.6 49.2 68.1333 48.2 72.8 47C77.4667 45.6667 81.6667 44 85.4 42C89.2667 40 92.4 37.4667 94.8 34.4C97.2 31.3333 98.4 27.6 98.4 23.2C98.4 21.3333 98.0667 19.8 97.4 18.6C96.8667 17.2667 96.2667 16.1333 95.6 15.2C94.8 14.2667 93.8667 13.4 92.8 12.6C96.8 11.4 100.6 10.8 104.2 10.8ZM90 129.2C94.9333 127.733 99.2 125.4 102.8 122.2C106.4 118.867 109.4 115.533 111.8 112.2C114.733 108.333 117.2 104.2 119.2 99.8C120.667 99.2667 122.333 98.6 124.2 97.8C126.2 96.8667 128.267 95.8667 130.4 94.8C132.667 93.7333 134.933 92.6667 137.2 91.6C139.467 90.4 141.667 89.2 143.8 88C148.867 85.2 154.067 82.2 159.4 79C156.733 89.8 152.867 99.4 147.8 107.8C145.667 111.4 143.133 115 140.2 118.6C137.267 122.067 133.867 125.133 130 127.8C126.267 130.467 122 132.667 117.2 134.4C112.533 136 107.267 136.8 101.4 136.8C95.4 136.8 89.8667 135.867 84.8 134C79.8667 132.133 75.6667 130.067 72.2 127.8C67.9333 125.267 64.2 122.333 61 119C67 117.933 73.2 116.4 79.6 114.4C86.1333 112.4 92.2 110.4 97.8 108.4C104.333 106.133 110.8 103.667 117.2 101C114.533 106.6 111.6 111.267 108.4 115C105.333 118.6 102.467 121.467 99.8 123.6C96.4667 126 93.2 127.867 90 129.2ZM163.2 33.8C165.333 33.8 167.533 34.6667 169.8 36.4C172.2 38 173.4 40 173.4 42.4C173.4 45.6 172.667 48.8 171.2 52C169.733 55.0667 167.733 58.1333 165.2 61.2C162.8 64.1333 160 67 156.8 69.8C153.733 72.6 150.6 75.2 147.4 77.6C139.8 83.3333 131.133 88.7333 121.4 93.8C121.8 92.6 122.267 91.2667 122.8 89.8C123.2 88.4667 123.667 87 124.2 85.4C124.733 83.8 125.267 82.1333 125.8 80.4C126.067 79.6 126.533 77.8667 127.2 75.2C128 72.5333 129.067 69.5333 130.4 66.2C131.733 62.7333 133.333 59.1333 135.2 55.4C137.2 51.5333 139.533 48 142.2 44.8C145 41.6 148.133 39 151.6 37C155.067 34.8667 158.933 33.8 163.2 33.8ZM3.4 90C3.4 83.0667 4.93333 77.4667 8 73.2C11.2 68.8 14.6667 65.3333 18.4 62.8C22.8 59.8667 27.8 57.6667 33.4 56.2C32.7333 58.6 32.1333 61.4 31.6 64.6C31.2 67.2667 30.8 70.5333 30.4 74.4C30 78.1333 29.8 82.3333 29.8 87C29.8 91.2667 30.2 95.2667 31 99C31.8 102.6 32.7333 105.8 33.8 108.6C34.8667 111.933 36.1333 115 37.6 117.8C31.2 117 25.5333 115.533 20.6 113.4C18.4667 112.467 16.3333 111.333 14.2 110C12.2 108.533 10.4 106.867 8.8 105C7.2 103.133 5.86667 101 4.8 98.6C3.86667 96.0667 3.4 93.2 3.4 90ZM88.4 17C88.4 19.6667 87.7333 22.2 86.4 24.6C85.2 26.8667 83.6 29 81.6 31C79.6 32.8667 77.2667 34.6 74.6 36.2C72.0667 37.8 69.4 39.2 66.6 40.4C60.2 43.3333 52.9333 45.8 44.8 47.8C47.3333 41 50.3333 34.9333 53.8 29.6C55.2667 27.3333 56.9333 25.1333 58.8 23C60.6667 20.7333 62.6667 18.7333 64.8 17C67.0667 15.2667 69.4667 13.9333 72 13C74.5333 11.9333 77.2 11.4 80 11.4C82.8 11.4 84.8667 12 86.2 13.2C87.6667 14.2667 88.4 15.5333 88.4 17Z" fill="white"/>
</svg>