<svg width="160" height="149" viewBox="0 0 160 149" fill="none" xmlns="http://www.w3.org/2000/svg">
<path d="M83.8 135.8C83.8 133.4 84.8667 130.867 87 128.2C89.2667 125.4 91.6667 122.6 94.2 119.8C96.8667 117 99.2667 114.267 101.4 111.6C103.533 108.933 104.6 106.467 104.6 104.2C104.6 101.4 103.6 99.2 101.6 97.6C99.7333 96 97.5333 95.2 95 95.2C92.2 95.2 89.1333 95.4667 85.8 96C82.4667 96.4 79.1333 96.9333 75.8 97.6C72.6 98.1333 69.4667 98.6667 66.4 99.2C63.4667 99.6 61 99.8 59 99.8C58.0667 99.8 57 99.8 55.8 99.8C54.6 99.6667 53.4667 99.4667 52.4 99.2C51.3333 98.8 50.4 98.2667 49.6 97.6C48.9333 96.8 48.6 95.8 48.6 94.6C48.6 92.4667 49.6667 90.6667 51.8 89.2C53.9333 87.7333 56.6667 86.5333 60 85.6C63.3333 84.5333 67.0667 83.6667 71.2 83C75.4667 82.3333 79.6667 81.8 83.8 81.4C87.9333 81 91.8 80.6667 95.4 80.4C99 80.1333 101.867 79.8 104 79.4C109.6 78.4667 115.667 77.0667 122.2 75.2C128.733 73.3333 134.8 70.8 140.4 67.6C146 64.2667 150.667 60.0667 154.4 55C158.133 49.9333 160 43.7333 160 36.4C160 29.3333 158.8 23.5333 156.4 19C154.133 14.3333 151.2 10.6667 147.6 7.99999C144.133 5.33333 140.267 3.46666 136 2.39999C131.733 1.19999 127.6 0.599989 123.6 0.599989C116.133 0.599989 109.6 2.26666 104 5.6C98.4 8.8 93.6667 12.5333 89.8 16.8C85.9333 20.9333 82.8667 24.9333 80.6 28.8C78.4667 32.5333 77 35 76.2 36.2C75.6667 37 74.8 38.4667 73.6 40.6C72.4 42.6 70.8667 45 69 47.8C67.2667 50.4667 65.2667 53.2667 63 56.2C60.8667 59 58.5333 61.6667 56 64.2C53.6 66.6 51.0667 68.6 48.4 70.2C45.8667 71.6667 43.3333 72.4 40.8 72.4L50.2 35C54.4667 33.2667 58.2667 31.3333 61.6 29.2C64.4 27.3333 66.9333 25.0667 69.2 22.4C71.6 19.6 72.8 16.4667 72.8 13C72.8 10.0667 72 7.86666 70.4 6.4C68.9333 4.93333 66.9333 4.19999 64.4 4.19999C61.2 4.19999 58.4667 5.59999 56.2 8.4C54.0667 11.0667 52.2667 14.1333 50.8 17.6C49.0667 21.4667 47.7333 25.9333 46.8 31C41.6 33 36.9333 35.4667 32.8 38.4C29.3333 40.8 26.0667 43.8667 23 47.6C20.0667 51.2 18.5333 55.4667 18.4 60.4C18.4 64.2667 19.2 67.4 20.8 69.8C22.5333 72.0667 24.4 73.8667 26.4 75.2C28.6667 76.6667 31.2667 77.7333 34.2 78.4C32.3333 84.2667 30.6667 89.6667 29.2 94.6C28 98.8667 26.8 102.867 25.6 106.6C24.4 110.2 23.6667 112.467 23.4 113.4C23.1333 114.333 22.6 115.867 21.8 118C21.1333 120 20.2667 122.133 19.2 124.4C18.2667 126.533 17.1333 128.467 15.8 130.2C14.6 131.8 13.2667 132.6 11.8 132.6C10.6 132.6 9.53333 132.133 8.6 131.2C7.8 130.133 7.4 128.467 7.4 126.2C7.4 123.667 8.06667 121.133 9.4 118.6C10.7333 116.067 12.2 113.733 13.8 111.6C15.5333 109.2 17.6 106.867 20 104.6C16.4 107.533 13.2 110.6 10.4 113.8C7.86667 116.6 5.6 119.867 3.6 123.6C1.6 127.2 0.6 130.933 0.6 134.8C0.6 138.667 1.4 141.467 3 143.2C4.6 144.8 6.46667 145.6 8.6 145.6C11.1333 145.6 13.4667 144.667 15.6 142.8C17.7333 140.933 19.6667 138.533 21.4 135.6C23.1333 132.667 24.6667 129.467 26 126C27.4667 122.4 28.6667 118.933 29.6 115.6C30.5333 112.133 31.3333 109.067 32 106.4C32.6667 103.6 33.1333 101.6 33.4 100.4C33.9333 98.5333 34.4667 96.4 35 94C35.6667 91.4667 36.2667 89.0667 36.8 86.8C37.6 84.1333 38.3333 81.4667 39 78.8C42.8667 78.8 46.5333 77.7333 50 75.6C53.6 73.4667 56.9333 70.8667 60 67.8C63.0667 64.7333 65.8 61.4 68.2 57.8C70.7333 54.2 72.8667 50.9333 74.6 48C79.2667 40.1333 83.6 33.6667 87.6 28.6C91.6 23.4 95.5333 19.2667 99.4 16.2C103.267 13.1333 107.133 11 111 9.79999C114.867 8.59999 118.867 7.99999 123 7.99999C132.333 7.99999 139.467 10.7333 144.4 16.2C149.467 21.5333 152 28.6 152 37.4C152 40.7333 150.933 44.3333 148.8 48.2C146.8 51.9333 143.733 55.5333 139.6 59C135.467 62.3333 130.267 65.4 124 68.2C117.867 71 110.667 73.1333 102.4 74.6C100.267 75 97.2667 75.4 93.4 75.8C89.5333 76.0667 85.2667 76.4667 80.6 77C75.9333 77.5333 71.2 78.2667 66.4 79.2C61.6 80 57.2 81.1333 53.2 82.6C49.3333 83.9333 46.1333 85.6667 43.6 87.8C41.2 89.9333 40 92.5333 40 95.6C40 98.1333 41 100.467 43 102.6C45 104.6 47.7333 105.6 51.2 105.6C53.7333 105.6 56.6 105.4 59.8 105C63.1333 104.6 66.4 104.133 69.6 103.6C72.9333 103.067 76 102.6 78.8 102.2C81.7333 101.667 84.0667 101.4 85.8 101.4C88.0667 101.4 90.1333 101.8 92 102.6C94 103.267 95.1333 105 95.4 107.8C95.4 109.4 94.3333 111.4 92.2 113.8C90.0667 116.2 87.6667 118.733 85 121.4C82.3333 124.067 79.8667 126.733 77.6 129.4C75.4667 132.067 74.4 134.533 74.4 136.8C74.4 140.667 75.6667 143.667 78.2 145.8C80.7333 147.933 84.2667 149 88.8 149C92.6667 149 96.4 148.2 100 146.6C103.6 145 107.067 142.933 110.4 140.4C113.867 137.733 117.133 134.8 120.2 131.6C123.267 128.267 126.067 124.867 128.6 121.4C134.6 113.267 140.2 104.067 145.4 93.8C139.8 102.733 133.933 110.733 127.8 117.8C125.267 120.867 122.533 123.867 119.6 126.8C116.667 129.6 113.667 132.133 110.6 134.4C107.533 136.667 104.4 138.533 101.2 140C98.1333 141.333 95.0667 142 92 142C90 142 88.1333 141.533 86.4 140.6C84.6667 139.667 83.8 138.067 83.8 135.8ZM24.2 60C24.2 56.2667 25.2667 53 27.4 50.2C29.6667 47.2667 32.1333 44.8667 34.8 43C37.8667 40.7333 41.3333 38.8 45.2 37.2L35.8 72.2C33.6667 71.8 31.7333 71.1333 30 70.2C28.5333 69.4 27.2 68.2 26 66.6C24.8 64.8667 24.2 62.6667 24.2 60ZM61 13.8C61.9333 13.8 62.6667 14.1333 63.2 14.8C63.8667 15.4667 64.2 16.3333 64.2 17.4C64.2 19 63.5333 20.5333 62.2 22C60.8667 23.4667 59.4667 24.7333 58 25.8C56.1333 27.1333 54 28.3333 51.6 29.4C52.2667 26.4667 53.0667 23.8667 54 21.6C54.8 19.6 55.8 17.8 57 16.2C58.2 14.6 59.5333 13.8 61 13.8Z" fill="white"/>
</svg>
