<svg width="155" height="158" viewBox="0 0 155 158" fill="none" xmlns="http://www.w3.org/2000/svg">
<path d="M93.4 71.2C91.4 71.2 89.7333 70.7333 88.4 69.8C87.0667 68.7333 86.4 67.3333 86.4 65.6C86.4 64 86.6 62.6667 87 61.6C87.5333 60.4 88 59.3333 88.4 58.4C88.9333 57.3333 89.4 56.3333 89.8 55.4C90.3333 54.4667 90.6 53.4 90.6 52.2C90.6 49.4 89.6667 47.6 87.8 46.8C85.9333 45.8667 84.2 45.4 82.6 45.4C77.6667 45.4 73.4667 46.4 70 48.4C66.5333 50.4 63.1333 52.6 59.8 55C56.6 57.2667 53.0667 59.4 49.2 61.4C45.4667 63.4 40.7333 64.4 35 64.4C32.2 64.4 29.8667 63.7333 28 62.4C26.1333 60.9333 25.2 58.8 25.2 56C25.2 52.5333 26.6 49.6667 29.4 47.4C32.3333 45 35.5333 42.8 39 40.8C42.4667 38.8 45.6 36.8 48.4 34.8C51.3333 32.8 52.8 30.5333 52.8 28C52.8 25.4667 51.5333 23.7333 49 22.8C46.4667 21.7333 43.6667 20.8667 40.6 20.2C37.6667 19.5333 34.9333 18.7333 32.4 17.8C29.8667 16.7333 28.6 14.9333 28.6 12.4C28.6 9.33333 30 7 32.8 5.39999C35.6 3.66666 39.2 2.79999 43.6 2.79999C47.3333 2.79999 50.4667 3.59999 53 5.2C55.5333 6.79999 57.6667 8.79999 59.4 11.2C61.1333 13.4667 62.6 16 63.8 18.8C65.1333 21.4667 66.4 24 67.6 26.4C68.9333 28.6667 70.3333 30.6 71.8 32.2C73.2667 33.8 75.1333 34.6 77.4 34.6C77.9333 34.6 78.7333 34.4667 79.8 34.2C81.9333 33.6667 83.2667 32.6 83.8 31C84.4667 29.2667 84.7333 27.3333 84.6 25.2C84.6 22.9333 84.3333 20.6667 83.8 18.4C83.4 16 83.0667 13.8 82.8 11.8C82.6667 9.8 82.8667 8.13333 83.4 6.8C83.9333 5.46666 85.1333 4.79999 87 4.79999C90.0667 4.79999 92.6 6.26666 94.6 9.19999C96.6 12.1333 98.0667 15.6 99 19.6C99.5333 21.8667 99.8 24.5333 99.8 27.6C99.8 30.5333 100.067 33.4 100.6 36.2C101.133 38.8667 102.133 41.2 103.6 43.2C105.2 45.0667 107.667 46 111 46C114.067 46 116.467 44.8 118.2 42.4C119.933 40 120.8 37.0667 120.8 33.6C120.8 29.4667 119.533 25.5333 117 21.8C114.467 18.0667 111.4 14.8 107.8 12C104.2 9.06666 100.467 6.79999 96.6 5.2C92.7333 3.46666 89.5333 2.59999 87 2.59999C84.7333 2.59999 83.0667 3.19999 82 4.39999C81.0667 5.59999 80.2 6.93333 79.4 8.39999C78.7333 9.73332 77.9333 11 77 12.2C76.2 13.4 74.8 14 72.8 14H72.4C70.4 13.8667 68.5333 13.1333 66.8 11.8C65.2 10.3333 63.4 8.8 61.4 7.19999C59.4 5.46666 56.9333 3.93333 54 2.59999C51.0667 1.13333 47.2667 0.399998 42.6 0.399998C30.6 0.399998 20.9333 4.06666 13.6 11.4C6.4 18.7333 2.8 29.1333 2.8 42.6C2.8 45.8 3.4 49.4 4.6 53.4C5.8 57.2667 7.6 61 10 64.6C12.4 68.0667 15.4 71 19 73.4C22.7333 75.8 27.1333 77 32.2 77C37.9333 77 42.8667 75.5333 47 72.6C51.2667 69.5333 55.2 66.2 58.8 62.6C62.5333 58.8667 66.2 55.5333 69.8 52.6C73.4 49.5333 77.4 48 81.8 48C84.2 48 85.6667 48.5333 86.2 49.6C86.8667 50.5333 87.2 51.3333 87.2 52C87.2 53.4667 86.2667 55.0667 84.4 56.8C82.6667 58.4 80.4 60.1333 77.6 62C74.9333 63.7333 72 65.6 68.8 67.6C65.6 69.6 62.6 71.6667 59.8 73.8C57.1333 75.9333 54.8667 78.1333 53 80.4C51.2667 82.6667 50.4 85.0667 50.4 87.6C50.4 90 51.2 91.8667 52.8 93.2C54.4 94.5333 56.4 95.2 58.8 95.2C63.0667 95.2 68.2667 93.8667 74.4 91.2C80.5333 88.5333 87.0667 85.6 94 82.4C100.933 79.2 107.933 76.2667 115 73.6C122.067 70.9333 128.6 69.6 134.6 69.6C140.2 69.6 144.467 70.8 147.4 73.2C150.333 75.6 151.8 78.7333 151.8 82.6C151.8 85.5333 150.867 88.0667 149 90.2C147.267 92.3333 145 94.1333 142.2 95.6C139.4 96.9333 136.267 97.9333 132.8 98.6C129.333 99.2667 125.867 99.6 122.4 99.6C120.4 99.6 117.4 99.6 113.4 99.6C109.533 99.4667 105.467 99.3333 101.2 99.2C97.0667 99.0667 93.1333 99 89.4 99C85.8 98.8667 83.2 98.8 81.6 98.8C80 98.8 78.2667 99 76.4 99.4C74.6667 99.8 73 100.4 71.4 101.2C69.8 102 68.4667 103 67.4 104.2C66.4667 105.4 66 106.867 66 108.6C66 111.667 67.2 114.2 69.6 116.2C72 118.2 75 119.933 78.6 121.4C82.2 122.867 86.1333 124.133 90.4 125.2C94.6667 126.133 98.6 127.133 102.2 128.2C105.8 129.267 108.8 130.4 111.2 131.6C113.6 132.8 114.8 134.333 114.8 136.2C114.8 138.467 114 140.533 112.4 142.4C110.933 144.133 108.933 145.667 106.4 147C104 148.333 101.333 149.467 98.4 150.4C95.4667 151.2 92.6 151.867 89.8 152.4C87.1333 152.933 84.6 153.333 82.2 153.6C79.9333 153.867 78.2667 154 77.2 154C72.2667 154 67.8667 153.4 64 152.2C60.1333 150.867 56.7333 149.267 53.8 147.4C50.8667 145.4 48.4 143.2 46.4 140.8C44.4 138.4 42.7333 136 41.4 133.6C40.2 131.333 39 128.2 37.8 124.2C36.7333 120.067 35.3333 116.067 33.6 112.2C32 108.333 29.9333 105 27.4 102.2C24.8667 99.2667 21.6 97.8 17.6 97.8C15.6 97.8 13.5333 98.1333 11.4 98.8C9.26667 99.3333 7.33333 100.333 5.6 101.8C4 103.133 2.66667 104.933 1.6 107.2C0.533334 109.333 5.66244e-07 112 5.66244e-07 115.2C5.66244e-07 119.867 1.4 124.2 4.2 128.2C7 132.2 10.6 135.8 15 139C19.5333 142.067 24.6 144.8 30.2 147.2C35.8 149.6 41.4 151.6 47 153.2C52.7333 154.8 58.1333 156 63.2 156.8C68.4 157.6 72.7333 158 76.2 158C79.8 158 83.9333 157.467 88.6 156.4C93.4 155.467 97.9333 154.067 102.2 152.2C106.467 150.2 110.067 147.867 113 145.2C115.933 142.533 117.4 139.6 117.4 136.4C117.4 132.933 116.067 130.267 113.4 128.4C110.867 126.533 108.067 125 105 123.8C102.067 122.467 99.4 121.2 97 120C94.7333 118.667 93.8 116.867 94.2 114.6C94.4667 113 95.5333 111.867 97.4 111.2C99.2667 110.533 101.6 110.067 104.4 109.8C107.333 109.4 110.6 109.067 114.2 108.8C117.933 108.4 121.733 107.733 125.6 106.8C129.2 105.867 132.667 104.733 136 103.4C139.467 102.067 142.533 100.4 145.2 98.4C147.867 96.4 150 94.0667 151.6 91.4C153.333 88.6 154.2 85.4 154.2 81.8C154.2 76.0667 152.133 71.6 148 68.4C143.867 65.2 138.8 63.6 132.8 63.6C129.067 63.6 125.4 64 121.8 64.8C118.333 65.6 114.933 66.4667 111.6 67.4C108.4 68.3333 105.267 69.2 102.2 70C99.1333 70.8 96.2 71.2 93.4 71.2Z" fill="white"/>
</svg>
