<svg width="104" height="144" viewBox="0 0 104 144" fill="none" xmlns="http://www.w3.org/2000/svg">
<path d="M53.8 0.399999C25 0.399999 11.4 14.8 11.4 33.2C11.4 51.8 24.8 61.4 52.6 70.4C72.8 77 94.6 82.2 94.6 104C94.6 123 82.2 138 54.8 138C27.8 138 14 125.4 7.8 107.6L2.38419e-07 111.6C8.6 130.6 25 143.4 54.8 143.4C89.2 143.4 103.8 125.4 103.8 104C103.8 77.8 73.8 72 54.6 65.6C25.8 56 20.2 47.6 20.2 33.2C20.2 17.4 30.4 5.39999 53.8 5.39999C69.6 5.39999 81.4 11.8 85.4 23.4L93.8 21.2C88.2 7.39999 72.6 0.399999 53.8 0.399999Z" fill="white"/>
</svg>
