<svg width="175" height="149" viewBox="0 0 175 149" fill="none" xmlns="http://www.w3.org/2000/svg">
<path d="M71.4 67.8C71.8 67.6667 72.2667 67.5333 72.8 67.4C73.3333 67.4 73.8667 67.4 74.4 67.4C75.0667 67.2667 75.7333 67.2 76.4 67.2C77.7333 67.2 79.2 67.4 80.8 67.8C82.4 68.0667 83.9333 68.6667 85.4 69.6C87 70.5333 88.3333 71.8667 89.4 73.6C90.6 75.2 91.4667 77.3333 92 80C92.2667 81.6 92.1333 83.2 91.6 84.8C91.2 86.4 90.4667 88 89.4 89.6C88.4667 91.0667 87.2667 92.4667 85.8 93.8C84.4667 95.1333 83.0667 96.4 81.6 97.6C78.1333 100.267 74.1333 102.8 69.6 105.2C75.8667 103.2 81.3333 100.733 86 97.8C88 96.4667 89.8667 95 91.6 93.4C93.4667 91.6667 95 89.8 96.2 87.8C97.5333 85.8 98.4667 83.6 99 81.2C99.6667 78.8 99.7333 76.2 99.2 73.4C98.5333 69.6667 96.8667 66.8 94.2 64.8C91.6667 62.8 89 61.3333 86.2 60.4C82.7333 59.3333 79 58.7333 75 58.6C77.6667 51.2667 80.2667 45.2667 82.8 40.6C85.3333 35.8 87.6667 32.0667 89.8 29.4C92.2 26.0667 94.5333 23.5333 96.8 21.8C101.333 23 106.267 24.0667 111.6 25C116.267 25.8 121.667 26.5333 127.8 27.2C133.933 27.8667 140.6 28.2 147.8 28.2C157.667 28.2 164.6 26.9333 168.6 24.4C172.733 21.7333 174.733 18.4 174.6 14.4C174.6 12.1333 173.733 10.2 172 8.59999C170.267 6.86666 167.933 5.39999 165 4.19999C162.2 2.99999 158.8 2.13332 154.8 1.59999C150.933 0.933322 146.733 0.599989 142.2 0.599989C135.133 0.599989 128.733 1.39999 123 2.99999C117.4 4.46666 112.6 6.13332 108.6 7.99999C103.8 10.2667 99.6 12.8 96 15.6C88.6667 13.0667 81.1333 10.8 73.4 8.79999C66.6 7.2 59.1333 5.73333 51 4.39999C42.8667 2.93332 34.8 2.19999 26.8 2.19999C25.8667 2.19999 24.9333 2.19999 24 2.19999C23.0667 2.19999 22.1333 2.26666 21.2 2.39999C17.6 2.66666 14.4 3.59999 11.6 5.19999C8.8 6.79999 7.66667 8.99999 8.2 11.8C8.6 14.4667 9.66667 16.2667 11.4 17.2C13.2667 18 15.2 18.5333 17.2 18.8C19.2 19.0667 21 19.4 22.6 19.8C24.3333 20.0667 25.3333 20.9333 25.6 22.4C25.8667 23.7333 24.6667 24.8667 22 25.8C19.4667 26.6 16.6 27.6 13.4 28.8C10.2 30 7.26667 31.5333 4.6 33.4C1.93333 35.1333 0.6 37.7333 0.6 41.2C0.6 44.5333 2.2 47.3333 5.4 49.6C8.73333 51.7333 12.8667 52.8 17.8 52.8C26.8667 52.8 34.2667 51.2667 40 48.2C45.7333 45.1333 50.2667 41.7333 53.6 38C57.4667 33.6 60.3333 28.6667 62.2 23.2C59.8 27.2 56.8667 30.8 53.4 34C50.4667 36.6667 46.8 39.1333 42.4 41.4C38.1333 43.6667 33 44.8 27 44.8C26.2 44.8 25.2 44.7333 24 44.6C22.9333 44.4667 21.8 44.2 20.6 43.8C19.5333 43.4 18.5333 42.8 17.6 42C16.8 41.2 16.2667 40.1333 16 38.8C15.6 36.8 16.5333 35.1333 18.8 33.8C21.0667 32.3333 23.5333 31 26.2 29.8C28.8667 28.4667 31.2667 27.1333 33.4 25.8C35.6667 24.3333 36.6 22.5333 36.2 20.4C35.9333 18.9333 35.1333 17.8667 33.8 17.2C32.4667 16.5333 31 16 29.4 15.6C27.8 15.2 26.2667 14.7333 24.8 14.2C23.4667 13.6667 22.6667 12.8667 22.4 11.8C22 9.79999 23.4 8.66666 26.6 8.4C27.2667 8.26666 28 8.2 28.8 8.2C29.6 8.2 30.4 8.2 31.2 8.2C37.2 8.2 43.7333 8.86666 50.8 10.2C57.8667 11.4 64.4667 12.7333 70.6 14.2C77.8 16.0667 84.9333 18.1333 92 20.4C90.5333 22 89.0667 23.6667 87.6 25.4C86.4 26.8667 85.1333 28.4667 83.8 30.2C82.6 31.9333 81.5333 33.5333 80.6 35C79.9333 36.2 78.9333 38.2 77.6 41C76.4 43.6667 75.1333 46.4 73.8 49.2C72.4667 52.5333 71 56.0667 69.4 59.8C65.6667 60.6 61.5333 62.4 57 65.2C52.6 67.8667 48.1333 71.2667 43.6 75.4C39.2 79.4 34.9333 83.9333 30.8 89C26.6667 93.9333 23.1333 99.1333 20.2 104.6C17.2667 109.933 15.0667 115.333 13.6 120.8C12.1333 126.267 11.8667 131.4 12.8 136.2C13.3333 139.533 14.6667 142.467 16.8 145C19.0667 147.533 22.2667 148.8 26.4 148.8C29.2 148.8 32 147.667 34.8 145.4C37.6 143 40.2667 139.933 42.8 136.2C45.4667 132.333 48 128 50.4 123.2C52.8 118.267 55.0667 113.267 57.2 108.2C62.1333 96.3333 66.8667 82.8667 71.4 67.8ZM65.4 69.4C61.6667 81 57.8667 91.3333 54 100.4C52.2667 104.267 50.4667 108.067 48.6 111.8C46.7333 115.533 44.8 118.867 42.8 121.8C40.9333 124.733 39 127.133 37 129C35 130.733 33.0667 131.6 31.2 131.6C29.3333 131.6 27.4667 131 25.6 129.8C23.8667 128.467 22.8 126.667 22.4 124.4C21.8667 121.2 22.2667 117.667 23.6 113.8C24.9333 109.933 26.8 106.067 29.2 102.2C31.7333 98.2 34.6 94.3333 37.8 90.6C41.1333 86.7333 44.4667 83.3333 47.8 80.4C51.1333 77.3333 54.3333 74.8 57.4 72.8C60.6 70.8 63.2667 69.6667 65.4 69.4ZM158.8 14.2C159.067 15.8 158.667 17.1333 157.6 18.2C156.667 19.2667 155.333 20.1333 153.6 20.8C152 21.3333 150.133 21.7333 148 22C146 22.2667 144 22.4 142 22.4C135.467 22.4 128.867 22.0667 122.2 21.4C115.533 20.6 109.067 19.2667 102.8 17.4C106 15.2667 109.533 13.4 113.4 11.8C116.733 10.3333 120.667 9.06666 125.2 7.99999C129.733 6.79999 134.667 6.19999 140 6.19999C146 6.19999 150.533 6.99999 153.6 8.59999C156.667 10.2 158.4 12.0667 158.8 14.2Z" fill="white"/>
</svg>
